<?xml version="1.0" encoding="UTF-8" standalone="no"?>
<!DOCTYPE svg PUBLIC "-//W3C//DTD SVG 1.1//EN" "http://www.w3.org/Graphics/SVG/1.1/DTD/svg11.dtd">
<svg width="100%" height="100%" viewBox="0 0 1087 615" version="1.1" xmlns="http://www.w3.org/2000/svg" xmlns:xlink="http://www.w3.org/1999/xlink" xml:space="preserve" xmlns:serif="http://www.serif.com/" style="fill-rule:evenodd;clip-rule:evenodd;stroke-linejoin:round;stroke-miterlimit:2;">
    <g transform="matrix(1,0,0,1,-1224.513229,0)">
        <g id="BIC" transform="matrix(4.166667,0,0,4.166667,1224.513229,0)">
            <rect x="0" y="0" width="260.787" height="147.402" style="fill:none;"/>
            <g id="레이어-1" serif:id="레이어 1">
            </g>
            <g transform="matrix(1,0,0,1,0.209148,0)">
                <g transform="matrix(4.098142,0,0,4.098142,225.351823,58.177237)">
                    <path d="M0,7.576L-12.532,7.576C-14.678,7.573 -16.407,5.786 -16.312,3.618C-16.226,1.644 -14.553,0.105 -12.58,0.003L-12.53,0L-4.149,0C-3.497,0 -2.969,-0.528 -2.969,-1.179C-2.969,-1.831 -3.497,-2.359 -4.149,-2.359L-12.528,-2.359L-12.528,-2.358C-12.529,-2.358 -12.531,-2.359 -12.532,-2.359C-15.927,-2.359 -18.679,0.393 -18.679,3.788C-18.679,7.183 -15.927,9.935 -12.532,9.935L0,9.935C0.651,9.935 1.179,9.407 1.179,8.755C1.179,8.104 0.651,7.576 0,7.576" style="fill-rule:nonzero;"/>
                </g>
                <g transform="matrix(4.098142,0,0,4.098142,224.840375,48.512178)">
                    <path d="M0,2.608C0.72,2.608 1.304,2.024 1.304,1.304C1.304,0.583 0.72,0 0,0C-0.72,0 -1.304,0.583 -1.304,1.304C-1.304,2.024 -0.72,2.608 0,2.608" style="fill-rule:nonzero;"/>
                </g>
                <g transform="matrix(4.098142,0,0,4.098142,111.507888,85.227435)">
                    <path d="M0,-5.625C-0.168,-7.534 -1.842,-8.959 -3.758,-8.959L-15.15,-8.959C-15.801,-8.959 -16.33,-8.431 -16.33,-7.78C-16.33,-7.128 -15.801,-6.6 -15.15,-6.6L-3.649,-6.6L-3.589,-6.594C-2.979,-6.534 -2.441,-6.089 -2.357,-5.482C-2.247,-4.68 -2.865,-3.995 -3.644,-3.992L-18.664,-3.992C-19.316,-3.992 -19.844,-3.464 -19.844,-2.812C-19.844,-2.161 -19.316,-1.633 -18.664,-1.633L-3.649,-1.633L-3.589,-1.627C-2.979,-1.567 -2.441,-1.122 -2.357,-0.514C-2.247,0.287 -2.865,0.972 -3.644,0.975L-18.664,0.975C-19.316,0.975 -19.844,1.503 -19.844,2.155C-19.844,2.806 -19.316,3.334 -18.664,3.334L-3.758,3.334C-1.842,3.334 -0.168,1.909 0,-0C0.096,-1.089 -0.289,-2.085 -0.962,-2.812C-0.289,-3.539 0.096,-4.536 0,-5.625" style="fill-rule:nonzero;"/>
                </g>
                <g transform="matrix(4.098142,0,0,4.098142,35.529149,48.512178)">
                    <path d="M0,2.608C0.72,2.608 1.304,2.024 1.304,1.304C1.304,0.583 0.72,0 0,0C-0.72,0 -1.304,0.583 -1.304,1.304C-1.304,2.024 -0.72,2.608 0,2.608" style="fill-rule:nonzero;"/>
                </g>
                <g transform="matrix(4.098142,0,0,4.098142,130.184762,98.891051)">
                    <path d="M0,-9.265C-0.651,-9.265 -1.18,-8.737 -1.18,-8.085L-1.18,-1.179C-1.18,-0.528 -0.651,0 0,0C0.651,0 1.179,-0.528 1.179,-1.179L1.179,-8.085C1.179,-8.737 0.651,-9.265 0,-9.265" style="fill-rule:nonzero;"/>
                </g>
                <g transform="matrix(4.098142,0,0,4.098142,130.184762,48.512178)">
                    <path d="M0,2.608C0.72,2.608 1.304,2.024 1.304,1.304C1.304,0.583 0.72,0 0,0C-0.72,0 -1.304,0.583 -1.304,1.304C-1.304,2.024 -0.72,2.608 0,2.608" style="fill-rule:nonzero;"/>
                </g>
            </g>
        </g>
    </g>
</svg>
